<svg xmlns="http://www.w3.org/2000/svg" viewBox="0 0 512 512" style="enable-background:new 0 0 512 512" xml:space="preserve"><style>.st26{fill:#4d917b}</style><circle cx="256.4" cy="255.9" style="fill:#1f3049" r="256" id="ICON"/><g id="Layer_8"><path d="M373.7 250H140.3L257 106.5 373.7 250zm-208.2-12h182.9L257 125.5 165.5 238z" style="fill:#c9402e"/><path d="M391 380.8c0 8.3-6.7 15-15 15H138c-8.3 0-15-6.7-15-15v-130c0-8.3 6.7-15 15-15h238c8.3 0 15 6.7 15 15v130z" style="fill:#fff"/><path class="st26" d="M175.4 333.5c-4.4 0-8.1-.6-11.4-1.7-3.2-1.1-6-2.7-8.1-4.7-2.2-2-3.9-4.5-5-7.3s-1.8-5.9-1.9-9.3h11c.2 2.2.7 4 1.6 5.6.9 1.6 2 2.9 3.3 3.9 1.3 1 2.9 1.8 4.6 2.3 1.7.5 3.6.7 5.5.7 1.8 0 3.5-.2 5-.6 1.5-.4 2.8-.9 3.9-1.6 1.1-.7 1.9-1.5 2.5-2.5.6-1 .9-2.1.9-3.3 0-1.3-.3-2.3-.9-3.2-.6-.9-1.5-1.7-2.8-2.4-1.3-.7-3-1.3-5-1.9-2.1-.6-4.6-1.2-7.7-1.8-3.5-.8-6.5-1.7-9-2.7-2.5-1-4.6-2.2-6.2-3.6-1.6-1.4-2.8-3-3.6-4.8-.8-1.8-1.2-3.9-1.2-6.3 0-2.6.5-4.9 1.6-7.1 1.1-2.1 2.6-4 4.5-5.6 2-1.6 4.3-2.8 7-3.7 2.7-.9 5.8-1.3 9.1-1.3 3.5 0 6.6.5 9.5 1.4 2.9.9 5.3 2.3 7.4 4.1 2.1 1.8 3.7 4 4.9 6.5 1.2 2.6 1.8 5.5 1.9 8.7h-10.9c-.8-6.9-5-10.4-12.5-10.4-3.7 0-6.5.6-8.4 1.9-1.9 1.2-2.9 2.9-2.9 5.1 0 .9.2 1.6.6 2.3.4.7 1.1 1.3 2 1.8.9.5 2.1 1 3.6 1.5s3.2.9 5.3 1.3c1.8.4 3.7.8 5.6 1.2 1.9.5 3.8 1 5.6 1.6 1.8.6 3.5 1.4 5.2 2.3 1.6.9 3 2 4.3 3.3 1.2 1.3 2.2 2.8 2.9 4.6.7 1.8 1.1 3.9 1.1 6.2 0 2.8-.6 5.4-1.7 7.7s-2.7 4.3-4.8 6c-2 1.7-4.5 3-7.3 3.9-2.7 1.4-5.8 1.9-9.1 1.9zM262 332.5h-12.7l-6.6-17.4h-21.3l-6.3 17.4h-12l23.3-60.8h10.8l24.8 60.8zm-22.8-27-7.4-19.3-7 19.3h14.4zM308 332.5h-39.2v-60.8h11.3V322H308v10.5zM364.4 332.5H318v-60.8h45.1v10.5h-33.8v13.7h31.6v10.4h-31.6v15.8h35.1v10.4z"/><g><circle cx="257" cy="133" r="17" style="fill:#87b7dd"/></g></g></svg>